<?xml version="1.0" standalone="no"?><!DOCTYPE svg PUBLIC "-//W3C//DTD SVG 1.1//EN" "http://www.w3.org/Graphics/SVG/1.1/DTD/svg11.dtd"><svg t="1644239508223" class="icon" viewBox="0 0 1024 1024" version="1.1" xmlns="http://www.w3.org/2000/svg" p-id="2052" xmlns:xlink="http://www.w3.org/1999/xlink" width="200" height="200"><defs><style type="text/css"></style></defs><path d="M851.456 755.419429q0 22.820571-16.018286 38.838857l-77.677714 77.677714q-16.018286 16.018286-38.838857 16.018286t-38.838857-16.018286l-168.009143-168.009143-168.009143 168.009143q-16.018286 16.018286-38.838857 16.018286t-38.838857-16.018286l-77.677714-77.677714q-16.018286-16.018286-16.018286-38.838857t16.018286-38.838857l168.009143-168.009143-168.009143-168.009143q-16.018286-16.018286-16.018286-38.838857t16.018286-38.838857l77.677714-77.677714q16.018286-16.018286 38.838857-16.018286t38.838857 16.018286l168.009143 168.009143 168.009143-168.009143q16.018286-16.018286 38.838857-16.018286t38.838857 16.018286l77.677714 77.677714q16.018286 16.018286 16.018286 38.838857t-16.018286 38.838857l-168.009143 168.009143 168.009143 168.009143q16.018286 16.018286 16.018286 38.838857z" p-id="2053" fill="#2c2c2c"></path></svg>