<?xml version="1.0" standalone="no"?><!DOCTYPE svg PUBLIC "-//W3C//DTD SVG 1.1//EN" "http://www.w3.org/Graphics/SVG/1.1/DTD/svg11.dtd"><svg t="1642695284840" class="icon" viewBox="0 0 1024 1024" version="1.1" xmlns="http://www.w3.org/2000/svg" p-id="2867" xmlns:xlink="http://www.w3.org/1999/xlink" width="200" height="200"><defs><style type="text/css"></style></defs><path d="M854.442667 520.192a85.248 85.248 0 0 1-24.618667 25.514667l-258.133333 174.208a106.666667 106.666667 0 0 1-119.338667 0l-258.133333-174.208a85.333333 85.333333 0 0 1-33.28-97.706667l291.925333 194.56a106.666667 106.666667 0 0 0 111.488 4.181333l6.826667-4.181333 291.84-194.56a85.162667 85.162667 0 0 1-8.576 72.192z m8.576 66.432a85.162667 85.162667 0 0 1-33.194667 97.706667l-258.133333 174.250666a106.666667 106.666667 0 0 1-119.338667 0l-258.133333-174.208a85.333333 85.333333 0 0 1-33.28-97.706666l291.925333 194.56a106.666667 106.666667 0 0 0 111.488 4.181333l6.826667-4.181333 291.84-194.56z m-291.84-440.490667l271.573333 181.034667a42.666667 42.666667 0 0 1 0 70.997333l-271.573333 181.034667a106.666667 106.666667 0 0 1-118.357334 0L181.248 398.165333a42.666667 42.666667 0 0 1 0-70.997333l271.573333-181.034667a106.666667 106.666667 0 0 1 118.357334 0z m-77.909334 50.389334l-4.949333 2.858666L243.413333 362.666667l244.906667 163.285333a42.666667 42.666667 0 0 0 42.453333 2.858667l4.906667-2.858667 244.906667-163.285333-244.906667-163.285334a42.666667 42.666667 0 0 0-42.410667-2.858666z" p-id="2868"></path></svg>