<?xml version="1.0" standalone="no"?><!DOCTYPE svg PUBLIC "-//W3C//DTD SVG 1.1//EN" "http://www.w3.org/Graphics/SVG/1.1/DTD/svg11.dtd"><svg t="1582090435305" class="icon" viewBox="0 0 1024 1024" version="1.1" xmlns="http://www.w3.org/2000/svg" p-id="2930" xmlns:xlink="http://www.w3.org/1999/xlink" width="200" height="200"><defs><style type="text/css"></style></defs><path d="M922.51648 663.12192c8.576 3.92192 12.5696 10.56768 11.95008 19.85536-0.62464 9.52832-5.2224 15.76448-13.9776 18.86208l-118.59968 41.92256 114.65216 125.66016c3.89632 4.4032 5.6832 9.48736 5.376 15.22176a21.38112 21.38112 0 0 1-6.72768 14.58176l-46.75584 42.7264c-4.41344 3.90144-9.48736 5.70368-15.22688 5.38112a21.38624 21.38624 0 0 1-14.58688-6.7328l-108.8768-119.3216-62.49472 131.17952c-2.51392 5.26848-6.528 8.95488-11.88352 10.84416a20.3008 20.3008 0 0 1-7.99744 1.02912c-9.51808-0.61952-15.76448-5.2224-18.86208-13.9776l-164.97664-466.7392c-3.072-8.69376-1.13152-16.256 5.888-22.72768 2.13504-1.92512 4.36736-3.34336 6.87104-4.224 5.62688-1.99168 10.90048-1.66912 16.05632 0.96256l430.17216 205.49632z" p-id="2931" fill="#2c2c2c"></path><path d="M492.0576 900.23424l-0.512-0.00512-225.14688-4.38784a25.6 25.6 0 0 1-21.87776-13.16352L29.26592 495.21152a25.6 25.6 0 0 1 0.42496-25.6l227.92192-380.14976a25.52832 25.52832 0 0 1 22.37952-12.43136l443.17696 7.31136a25.62048 25.62048 0 0 1 21.95968 13.16352l215.26016 387.46112a25.6 25.6 0 0 1-44.75904 24.86784l-208.08192-374.53824-413.62432-6.82496L81.2032 483.26656l200.92416 361.67168 210.42176 4.10624a25.6 25.6 0 0 1-0.49152 51.18976z" p-id="2932" fill="#2c2c2c"></path></svg>