<?xml version="1.0" standalone="no"?><!DOCTYPE svg PUBLIC "-//W3C//DTD SVG 1.1//EN" "http://www.w3.org/Graphics/SVG/1.1/DTD/svg11.dtd"><svg t="1642786122647" class="icon" viewBox="0 0 1024 1024" version="1.1" xmlns="http://www.w3.org/2000/svg" p-id="3561" xmlns:xlink="http://www.w3.org/1999/xlink" width="200" height="200"><defs><style type="text/css"></style></defs><path d="M932.8 864l91.2-54.4L705.6 688c-4.8-4.8-14.4 4.8-9.6 9.6l36.8 91.2v36.8h14.4l73.6 195.2 54.4-91.2 64 64c9.6 9.6 22.4 14.4 32 14.4 9.6 0 22.4-4.8 32-14.4 17.6-17.6 17.6-44.8 0-64L932.8 864zM454.4 732.8h182.4v91.2H454.4zM136 732.8h182.4v91.2H136zM0 777.6c0 27.2 17.6 44.8 44.8 44.8h44.8v-91.2H0v46.4zM0 459.2h91.2v182.4H0zM0 140.8h91.2v182.4H0zM0 49.6V96h91.2V4.8H44.8C17.6 4.8 0 22.4 0 49.6zM182.4 4.8h182.4V96H182.4zM500.8 4.8h182.4V96H500.8zM819.2 49.6c0-27.2-17.6-44.8-44.8-44.8h-44.8V96h91.2V49.6zM728 187.2h91.2v182.4h-91.2zM728 505.6h91.2V688h-91.2z" p-id="3562"></path></svg>