<?xml version="1.0" standalone="no"?><!DOCTYPE svg PUBLIC "-//W3C//DTD SVG 1.1//EN" "http://www.w3.org/Graphics/SVG/1.1/DTD/svg11.dtd"><svg t="1642931269568" class="icon" viewBox="0 0 1024 1024" version="1.1" xmlns="http://www.w3.org/2000/svg" p-id="2266" xmlns:xlink="http://www.w3.org/1999/xlink" width="200" height="200"><defs><style type="text/css"></style></defs><path d="M425.984 342.016l0-86.016 256 0q34.005333 0 59.989333 25.984t25.984 59.989333l0 256-86.016 0 0-256-256 0zM937.984 768l-169.984 0 0 86.016 86.016 0-128 128-128-128 84.010667 0 0-86.016-340.010667 0q-34.005333 0-59.989333-25.984t-25.984-59.989333l0-340.010667-169.984 0 0-86.016 169.984 0 0-86.016-86.016 0 128-128 128 128-84.010667 0 0 512 596.010667 0 0 86.016z" p-id="2267"></path></svg>